DAYN 300 MB TEAM-DAYN DOT ORG

Format : AVI
Format/Info : Audio Video Interleave
Format profile : OpenDML
File size : 1.14 GiB
Duration : 1h 51mn
Overall bit rate : 1 463 Kbps
Writing application : Lavf52.39.1

Video
ID : 0
Format : MPEG-4 Visual
Format settings, BVOP : 1
Format settings, QPel : No
Format settings, GMC : No warppoints
Format settings, Matrix : Default (H.263)
Muxing mode : Packed bitstream
Codec ID : DX50
Codec ID/Hint : DivX 5
Duration : 1h 51mn
Bit rate : 221 Kbps
Width : 720 pixels
Height : 304 pixels
Display aspect ratio : 2.35:1
Frame rate : 25.000 fps
Color space : YUV
Chroma subsampling : 4:2:0
Bit depth : 8 bits
Scan type : Progressive
Compression mode : Lossy
Bits/(Pixel*Frame) : 0.040
Stream size : 176 MiB (15%)
Writing library : DivX 6.8.5 (UTC 2009-08-20)

Audio
ID : 1
Format : MPEG Audio
Format version : Version 1
Format profile : Layer 3
Mode : Joint stereo
Mode extension : MS Stereo
Codec ID : 55
Codec ID/Hint : MP3
Duration : 1h 51mn
Bit rate mode : Constant
Bit rate : 128 Kbps
Channel(s) : 2 channels
Sampling rate : 44.1 KHz
Compression mode : Lossy
Stream size : 12.3 MiB (1%)
Alignment : Aligned on interleaves
Interleave, duration : 37 ms (0.92 video frame)
Greetz : IMAGiNE